<svg width="270" height="80" viewBox="0 0 270 80" fill="none" xmlns="http://www.w3.org/2000/svg">
<path d="M105.712 14.8654C105.709 15.3686 105.788 15.9017 105.914 16.385C106.066 16.875 106.248 17.3583 106.553 17.7755C106.811 18.133 107.119 18.4839 107.549 18.623C107.546 18.623 107.543 18.623 107.543 18.623C107.543 18.623 107.553 18.6263 107.582 18.6362C107.609 18.6429 107.619 18.6462 107.619 18.6462C107.619 18.6462 107.619 18.6462 107.616 18.6462C107.718 18.6726 107.821 18.6826 107.923 18.6826C108.092 18.6826 108.264 18.6528 108.47 18.6097C108.678 18.5634 108.897 18.5204 109.085 18.4177C109.317 18.2919 109.449 17.9873 109.536 17.7523C109.635 17.4841 109.685 17.2027 109.701 16.918C109.731 16.4148 109.651 15.9215 109.502 15.4415C109.506 15.4613 109.512 15.4812 109.516 15.5044C109.797 16.7724 109.413 17.9377 108.665 18.1065C107.91 18.2787 107.076 17.3914 106.798 16.1235C106.722 15.7825 106.695 15.4481 106.709 15.1402C106.864 15.3653 107.106 15.4845 107.331 15.4216C107.645 15.3389 107.808 14.9416 107.702 14.541C107.609 14.1868 107.334 13.9484 107.059 13.9517C107.215 13.7266 107.414 13.5743 107.649 13.5213C108.135 13.4088 108.658 13.7431 109.042 14.3357C108.946 14.1603 108.84 13.9914 108.718 13.8292C108.423 13.4352 108.029 13.0578 107.533 12.9552C107.45 12.9386 107.364 12.9287 107.278 12.9287C106.841 12.9287 106.394 13.1406 106.119 13.4683C105.802 13.8524 105.712 14.3821 105.712 14.8654ZM105.427 16.4049C105.279 15.8619 105.093 15.0144 105.139 14.2099C105.202 13.0512 105.795 12.399 106.503 12.1772C107.377 11.9024 108.301 12.3361 108.827 13.0115C109.122 13.3889 109.433 13.9318 109.658 14.4913C109.744 14.68 109.824 14.8787 109.896 15.0939C110.118 15.7361 110.214 16.3552 110.181 16.9412C110.161 17.2921 110.095 17.6199 109.986 17.9145C109.867 18.239 109.681 18.6362 109.314 18.8349C109.069 18.9673 108.811 19.0203 108.582 19.0699L108.572 19.0732C108.37 19.1163 108.152 19.156 107.927 19.156C107.788 19.156 107.655 19.1428 107.523 19.1097C107.503 19.1063 107.483 19.0997 107.46 19.0931C107.457 19.0931 107.453 19.0931 107.45 19.0898C107.44 19.0865 107.43 19.0832 107.424 19.0799L107.417 19.0765L107.407 19.0732C106.831 18.8878 106.457 18.4508 106.169 18.0503C105.917 17.7026 105.749 17.3318 105.616 16.9776L105.613 16.971C105.613 16.971 105.583 16.8948 105.54 16.7591C105.514 16.6763 105.487 16.5969 105.464 16.5174L105.457 16.4976C105.444 16.4744 105.434 16.438 105.427 16.4049ZM107.586 18.6329C107.596 18.6362 107.609 18.6395 107.619 18.6429C107.609 18.6395 107.566 18.6263 107.553 18.623C107.563 18.6263 107.576 18.6296 107.586 18.6329ZM99.009 18.9838C99.3202 19.5731 99.7108 20.0234 100.108 20.2584C100.303 20.3743 100.518 20.4306 100.757 20.4306C100.955 20.4306 101.177 20.3942 101.439 20.318L101.452 20.3147C101.564 20.2849 101.902 20.1889 102.084 20.1095C102.418 19.9671 102.7 19.4937 102.832 18.8448C102.882 18.6064 102.905 18.3548 102.912 18.1032C102.826 18.8945 102.445 19.5102 101.869 19.6427C101.031 19.8413 100.098 18.9441 99.7869 17.643C99.7042 17.2921 99.6744 16.9478 99.6909 16.6267C99.8531 16.822 100.085 16.9213 100.3 16.8584C100.618 16.7723 100.783 16.3718 100.671 15.9745C100.578 15.6534 100.336 15.4282 100.078 15.3951C100.25 15.1535 100.479 14.9879 100.747 14.925C101.359 14.7794 102.018 15.2197 102.455 15.9712C102.438 15.9315 102.422 15.8917 102.405 15.8553C101.985 15.0177 101.256 14.1503 99.8697 14.5211C98.0457 15.0111 98.4595 17.3981 98.6581 18.1363C98.7508 18.4343 98.8667 18.7157 99.009 18.9838ZM98.5423 19.2321C98.2377 18.6594 98.059 18.0569 97.9663 17.4146C97.8769 16.7922 97.8405 16.1433 97.953 15.5209C98.0623 14.9118 98.3403 14.3457 98.8402 13.9815C99.2507 13.6802 99.7902 13.4981 100.313 13.4981C100.452 13.4981 100.591 13.5114 100.724 13.5379C102.041 13.8093 102.657 14.8853 103.18 16.4016C103.752 18.0635 103.355 20.1359 102.293 20.5928C102.031 20.7054 101.588 20.8212 101.588 20.8212C101.309 20.9007 101.035 20.9537 100.76 20.9537C100.449 20.9537 100.141 20.8841 99.8432 20.7087C99.2838 20.3842 98.8435 19.8016 98.5423 19.2321ZM109.122 23.2612C107.457 24.1584 105.563 24.6516 103.696 24.9066C104.203 25.1449 104.722 25.3336 105.285 25.3767C105.795 25.4164 106.301 25.3369 106.788 25.188C107.285 25.0357 107.761 24.8106 108.162 24.4762C108.566 24.1418 108.867 23.7147 109.122 23.2612ZM111.621 21.6522C111.515 21.6721 111.472 21.5363 111.412 21.3774C111.085 21.8012 110.409 22.4633 110.317 22.5792C110.164 22.7778 110.039 22.9963 109.92 23.2181C109.718 23.5856 109.522 23.9564 109.277 24.2974C108.946 24.7609 108.526 25.1549 108.039 25.4495C107.112 26.009 105.944 26.2738 104.871 26.0984C104.305 26.0057 103.769 25.7938 103.256 25.5455C102.839 25.3436 102.402 25.0787 101.928 25.0555C101.405 25.0721 100.869 25.0787 100.349 25.0158C100.171 24.9959 100.015 24.9264 99.9557 24.7377C99.8763 24.4894 100.048 24.2345 100.306 24.2179C100.393 24.2179 100.475 24.2345 100.561 24.2411C100.73 24.2511 100.896 24.2643 101.064 24.2676C102.951 24.3272 104.861 24.0259 106.662 23.4731C107.768 23.1321 108.844 22.6653 109.794 21.9998C110.184 21.725 110.558 21.4205 110.88 21.0629C110.926 21.0099 110.972 20.9404 111.025 20.8808C110.989 20.861 110.956 20.8411 110.929 20.8312C110.836 20.7981 110.823 20.6193 111.005 20.5729C111.187 20.5233 111.432 20.6193 111.518 20.7153C111.604 20.8113 111.704 20.9735 111.73 21.1689C111.76 21.3708 111.74 21.6257 111.621 21.6522ZM100.25 23.8836C99.7637 24.2179 99.6446 24.4795 99.5751 24.6384C99.5055 24.7973 99.5155 24.9695 99.5387 25.0522C99.5618 25.135 99.5353 25.2178 99.4592 25.2509H99.4559C99.4526 25.2542 99.4493 25.2542 99.446 25.2542C99.3698 25.284 99.3069 25.2707 99.2738 25.2509C99.2308 25.231 99.1977 25.1946 99.1811 25.1482C99.0421 24.8304 99.1844 24.1584 99.542 23.8372C99.6711 23.7147 99.8631 23.579 100.018 23.5161C100.078 23.4896 100.26 23.4201 100.349 23.5525C100.442 23.6916 100.336 23.824 100.25 23.8836Z" fill="#D4E3ED"/>
<path d="M113.989 69.4212C113.688 69.4742 111.327 69.9277 108.845 69.9939C104.419 70.1164 100.562 68.3453 100.526 65.1505C100.466 59.6151 106.061 56.5793 110.192 55.7351C112.042 55.3577 115.608 54.9405 119.156 55.8145L117.094 60.7606C116.501 59.4132 114.979 59.3867 114.356 59.3735C112.85 59.3403 111.602 59.7376 110.682 60.1614C108.596 61.1181 106.779 64.1838 109.732 65.3657C111.367 66.0212 113.456 65.4981 115.627 65.1538L113.989 69.4212Z" fill="#D4E3ED"/>
<path d="M200.274 55.6094L196.719 65.2698C196.769 64.2965 196.961 60.4562 197.08 58.2414C197.129 57.3309 196.931 56.6324 196.497 56.1722C195.964 55.616 195.266 55.6094 195.259 55.6094H187.337L182.16 69.6862H187.91L191.585 59.7179L191.151 69.6862H200.794L205.978 55.6094H200.274Z" fill="#D4E3ED"/>
<path d="M167.401 55.6094H160.77L155.586 69.6862H168.903L170.625 65.0116H163.945L167.401 55.6094Z" fill="#D4E3ED"/>
<path d="M142.857 55.6094L137.676 69.6862H152.053L153.447 65.8889H145.512L146.091 64.3263H153.5L154.767 60.8601H147.362L147.928 59.2975H155.704L157.071 55.6094H142.857Z" fill="#D4E3ED"/>
<path d="M132.533 55.6094L130.653 60.6813H127.223L129.087 55.6094H122.582L117.418 69.6862H123.897L125.664 64.9189H129.104L127.336 69.6862H133.827L139.015 55.6094H132.533Z" fill="#D4E3ED"/>
<path d="M93.9372 55.6094L88.75 69.6862H95.5725L100.75 55.6094H93.9372Z" fill="#D4E3ED"/>
<path d="M84.9103 69.6862L90.0909 55.6094H80.4612L75.4825 63.1709C75.4825 63.1709 75.8003 59.2147 75.8798 58.2612C75.9394 57.5362 75.85 55.6094 74.0823 55.6094H66.1839L61 69.6862H67.1803L70.9342 59.506L70.143 69.6862H75.6348L82.368 59.6815L78.6902 69.6862H84.9103Z" fill="#D4E3ED"/>
<path d="M176.675 55.6094L171.488 69.6862H178.31L183.491 55.6094H176.675Z" fill="#D4E3ED"/>
<path fill-rule="evenodd" clip-rule="evenodd" d="M178.52 16.011L178.53 16.0407C178.844 16.9942 178.48 17.9609 177.616 18.5105C177.537 18.5601 177.282 18.7124 176.984 18.878C176.812 19.2289 176.547 19.5268 176.229 19.7222L175.133 20.4008C175.077 20.573 175.001 20.7385 174.902 20.8941C174.296 21.8443 173.134 22.9004 171.449 24.0326C170.122 24.9265 168.841 25.6184 168.212 25.8799C168.114 25.9183 167.944 26 167.738 26.0993C167.677 26.1286 167.613 26.1594 167.546 26.1911L167.516 26.2044L167.503 26.2106C165.62 27.1158 162.144 28.7867 159.476 28.7867C159.34 28.7867 159.208 28.7833 159.072 28.7734C159.062 28.8529 159.052 28.929 159.039 29.0085C158.982 29.3793 158.416 32.6237 155.758 34.4081C154.994 34.9212 154.411 35.2755 153.891 35.547C153.63 36.1528 153.285 36.7057 152.726 37.4274C152.044 38.3047 150.975 39.1489 149.455 40.0097C148.813 40.3738 147.631 41.0426 146.109 41.3041C145.301 42.3834 144.007 43.2706 142.256 43.9427C141.388 45.6477 139.041 46.8825 138.015 47.2169C137.955 47.2368 137.78 47.2964 137.78 47.2964L137.76 47.3033C137.164 47.5052 136.281 47.8047 135.132 47.9585C134.605 48.475 133.874 48.912 132.901 49.2993C132.176 49.5873 131.414 49.7992 131.037 49.8588H128.157H128.156C127.226 49.8554 126.356 49.7429 125.565 49.5178C122.96 48.7795 121.593 47.3791 120.689 46.4522C119.375 45.1047 118.345 42.7178 118.008 41.0558C117.458 38.3544 117.829 35.7324 119.107 33.2593C119.507 32.4846 120.01 31.7762 120.606 31.1438C117.739 30.6274 114.995 30.5843 114.108 30.5843C114.012 30.7797 113.876 30.9684 113.678 31.1405C112.655 32.0278 111.788 32.2661 112.38 31.5808C112.976 30.8922 112.936 30.1606 112.774 29.9983C112.658 29.8823 112.483 29.9312 112.339 29.9712C112.307 29.9803 112.276 29.9889 112.248 29.995C110.55 30.6042 110.238 30.3427 110.579 30.1341C112.102 29.1972 112.983 28.3728 113.479 27.8332C114.747 26.3898 115.813 24.2677 115.575 22.3342C115.296 20.0665 114.002 18.2986 112.714 17.2458C112.592 17.1498 112.456 17.0472 112.39 16.9975L112.281 16.9181C112.274 16.9148 112.268 16.9114 112.264 16.9081C112.264 16.9048 112.261 16.9048 112.261 16.9048C112.052 16.7625 111.788 16.6036 111.559 16.5241C111.208 16.4049 111.327 16.1666 111.685 16.0871C111.673 16.0305 111.661 15.9727 111.648 15.9144V15.9137C111.622 15.7848 111.594 15.6539 111.562 15.5309C111.546 15.4705 111.53 15.4097 111.514 15.3487C111.485 15.2394 111.455 15.1294 111.423 15.0211C109.904 9.96575 106.306 7.81715 103.326 7.50595C103.293 7.50264 103.264 7.49933 103.234 7.49271C102.774 7.44669 102.411 7.43839 102.185 7.43323C102.07 7.4306 101.991 7.42878 101.953 7.42319C101.469 7.36029 101.671 7.15172 101.966 7.03585C102.085 6.9895 102.092 6.91004 102.059 6.82728C101.704 6.30751 100.119 5.83409 98.4602 6.29426C97.5764 6.53594 96.8316 7.0855 96.3946 7.65162C96.3185 7.76418 96.2456 7.88005 96.1894 8.00586C96.1789 8.02688 96.171 8.04925 96.1633 8.07125C96.1589 8.08389 96.1545 8.09641 96.1496 8.10849C96.0834 8.32037 96.3284 8.25416 96.3284 8.25416C97.1129 8.08531 97.4605 8.30382 96.8382 8.63157C96.4443 8.84014 95.8948 9.22417 95.5207 9.49564C94.6269 10.1876 93.4484 11.343 92.6142 13.0744C91.8363 14.6834 91.4788 16.5241 91.5417 18.5668C91.548 18.6521 91.5549 18.7659 91.5622 18.8871L91.5623 18.888V18.8887C91.5783 19.1528 91.5964 19.4521 91.6145 19.5699C91.6476 19.7652 91.7834 19.9771 92.2667 19.9142C92.3425 19.9044 92.4151 19.8944 92.4833 19.8849C93.0168 19.811 93.2834 19.774 92.7434 20.2055C92.5083 20.3942 91.7403 21.0961 91.2868 21.6489C90.3964 22.8044 89.7045 24.9165 90.3798 27.5816C90.9591 29.8759 92.3958 31.3954 94.6567 32.1105C96.0073 32.5012 99.0958 33.0176 101.489 32.8753C101.744 32.862 101.81 32.9084 101.777 33.0044C101.738 33.1203 101.555 33.1699 101.324 33.203C101.233 33.2155 101.118 33.2337 100.976 33.2562C100.515 33.3293 99.7747 33.4468 98.6853 33.5506C98.3576 33.5771 98.1292 33.7758 98.0829 33.9446C98.0829 33.9446 98.0762 33.9645 98.0762 33.9711C97.9107 34.5968 99.1719 35.1232 99.3176 35.1695C99.8108 35.3251 99.5857 35.5701 99.3871 35.6032C98.7788 35.7128 97.8457 35.5822 97.0266 35.4675C96.6334 35.4124 96.2663 35.361 95.9742 35.3417C95.3949 35.302 94.948 35.4278 94.7494 35.4973C92.7169 36.4044 90.969 37.53 89.539 38.8609C87.9335 40.3507 86.7153 42.1053 85.9175 44.0685C84.845 46.7104 84.8251 49.0013 84.8648 49.8588H83.0507C83.0079 48.7579 83.0751 46.2507 84.2392 43.3898C84.7457 42.145 85.3978 40.9797 86.1956 39.8971C83.9843 40.3507 82.018 41.4465 80.3264 43.168C78.6323 44.8888 77.259 47.248 76.4147 49.8588H74.209L74.2322 49.776C74.8843 47.5546 76.2084 44.3466 78.8235 41.6849C81.2996 39.1688 84.4146 37.7452 87.8474 37.5598C87.8968 37.5104 87.9486 37.4622 88.0006 37.4137C88.0357 37.381 88.0709 37.3482 88.1056 37.3148C89.5522 35.974 91.2868 34.812 93.273 33.8585C90.7307 32.8256 89.0292 30.8492 88.334 28.1047C87.3244 24.1154 88.8041 21.4669 89.5754 20.424C88.6981 13.5743 91.8727 9.77042 93.9218 8.07538C94.2396 6.38365 95.855 4.82435 97.8975 4.25823C98.5165 4.08608 99.162 4 99.8141 4C101.43 4 102.876 4.53963 103.631 5.41695C107.471 5.85395 112.092 8.68453 113.701 15.3422C114.624 16.0308 117.203 18.2787 117.673 22.0826C117.922 24.1087 117.173 26.4692 115.661 28.5019C117.253 28.5648 119.808 28.7602 122.324 29.3395C123.483 28.5946 124.516 28.247 124.916 28.1312C125.747 27.8895 126.757 27.7339 127.045 27.6942C127.485 27.6279 127.968 27.5915 128.475 27.5915C129.634 27.5915 130.576 27.7699 130.725 27.7981L130.736 27.8001L130.789 27.81C132.063 27.4326 133.046 27.3234 133.672 27.3035C133.937 27.1413 134.212 26.9956 134.483 26.8632C135.572 26.3368 136.453 26.1415 136.549 26.1216L136.628 26.105C137.33 25.145 138.042 24.5457 138.32 24.3306C138.432 24.2412 138.545 24.1518 138.657 24.0657L138.697 24.0359L138.741 24.0012C139.38 23.501 139.979 23.0323 140.577 22.7249C141.064 22.4766 141.719 22.2581 142.517 22.076C142.898 21.5894 143.335 21.159 143.808 20.7948C145.01 19.8711 145.791 19.4043 146.003 19.2852C146.4 19.0369 147.893 18.2158 150.005 18.2158C151.17 18.2158 152.322 18.4674 153.431 18.9574C153.573 19.0203 153.716 19.0865 153.858 19.1594C154.053 18.7157 154.272 18.3648 154.398 18.1794C154.629 17.8219 155.603 16.4546 158.281 14.1206C158.344 14.0643 158.413 14.0146 158.483 13.9683C163.969 10.4071 164.208 10.2878 164.327 10.228L164.355 10.214C164.64 10.0783 164.948 10.0088 165.269 10.0088C166.169 10.0088 167.03 10.5683 167.46 11.4357C167.804 12.1309 167.841 12.9387 167.569 13.7167L170.661 12.9784C171.201 12.8493 171.619 12.7489 171.945 12.6709C172.889 12.4447 173.052 12.4056 173.104 12.3957C173.23 12.3693 173.435 12.3362 173.693 12.3362C174.789 12.3362 175.736 12.9221 176.199 13.8756C177.467 14.1669 178.235 15.1899 178.52 16.011ZM130.538 47.7948C130.603 47.7821 130.654 47.7723 130.689 47.7665C130.828 47.7466 131.189 47.6539 131.636 47.505C131.04 47.356 130.448 47.1441 129.868 46.8693C128.67 46.3032 127.561 45.4822 126.661 44.4989C125.721 43.4726 124.979 42.1716 124.522 40.7381C124.062 39.3079 123.897 37.775 124.036 36.3018C124.175 34.822 124.688 33.362 125.515 32.0808C126.085 31.1968 126.8 30.4056 127.611 29.7534C127.525 29.7633 127.439 29.7733 127.353 29.7865C127.353 29.7865 126.287 29.9322 125.509 30.1606C124.731 30.3857 122.126 31.3822 120.722 34.0936C119.319 36.805 119.477 39.1589 119.789 40.6917C120.1 42.2245 121.043 44.2109 121.99 45.1809C122.933 46.1509 123.989 47.1805 126.058 47.7665C126.783 47.9718 127.525 48.0413 128.197 48.0413C129.261 48.0413 130.151 47.8695 130.538 47.7948ZM137.104 45.2838C136.366 45.5365 135.199 45.9358 133.646 45.9358H133.487C131.666 45.9026 129.544 44.9624 127.998 43.2707C126.449 41.579 125.605 38.9934 125.843 36.4707C126.081 33.948 127.598 31.8424 129.435 30.6771C129.859 30.4089 130.302 30.2037 130.736 30.0514C130.921 29.9852 131.103 29.9256 131.279 29.8726C131.246 29.9189 131.212 29.9653 131.179 30.015C129.299 32.8025 129.432 36.3482 130.348 38.4604C130.825 39.5595 131.375 40.4798 132.03 41.2678C132.894 42.3139 133.937 43.1118 135.122 43.6415C136.218 44.1315 137.376 44.3764 138.561 44.3764C138.687 44.3764 138.813 44.3731 138.939 44.3665C138.383 44.7505 137.783 45.0584 137.35 45.2008C137.274 45.2257 137.192 45.2538 137.104 45.2838ZM138.565 42.5588C139.528 42.5588 140.392 42.3502 141.097 42.1052C141.829 41.8536 142.663 41.4961 143.368 41.0061C142.375 40.8472 141.395 40.5228 140.488 40.046C138.955 39.2383 137.681 38.0431 136.701 36.4971L136.674 36.4507C134.735 33.1831 135.009 30.4353 135.615 28.6674C134.695 29.0846 133.506 29.8129 132.686 31.0312C131.173 33.2824 131.332 36.1561 132.017 37.7352C132.705 39.3144 133.821 41.069 135.863 41.9794C136.813 42.4032 137.727 42.5588 138.565 42.5588ZM148.406 38.1623C147.582 38.6291 146.43 39.2515 144.97 39.2945C144.904 39.2979 144.838 39.2979 144.772 39.2979C142.597 39.2979 139.971 38.255 138.243 35.5237C135.191 30.3757 138.531 26.8466 139.621 26.0024C139.746 25.9051 139.871 25.8072 139.994 25.7103C140.525 25.2928 141.031 24.8954 141.448 24.6616C141.206 25.3403 141.114 25.8666 141.084 26.0421C140.859 27.3399 141.061 29.0018 141.63 30.4949C142.378 32.4647 143.699 34.0538 145.45 35.0867C146.87 35.9243 148.337 36.3514 149.81 36.3514C150.214 36.3514 150.591 36.3183 150.932 36.2653C150.24 37.0665 149.105 37.765 148.406 38.1623ZM176.024 17.3484C176.246 17.2292 176.481 17.0935 176.659 16.9809C176.815 16.8816 176.885 16.769 176.815 16.5969C176.679 16.1963 176.232 15.5805 175.474 15.5805C175.335 15.5805 175.183 15.6037 175.024 15.65L174.941 15.6765C174.418 15.8553 174.137 15.9281 173.988 15.9612L166.603 18.1595C166.543 18.1794 166.477 18.1827 166.417 18.1694C166.282 18.1429 166.166 18.0436 166.119 17.9013C166.057 17.696 166.172 17.4808 166.378 17.4179L174.673 14.9482C174.67 14.9283 174.667 14.9085 174.66 14.8853C174.498 14.2331 173.995 14.1205 173.683 14.1205C173.581 14.1205 173.501 14.1305 173.458 14.1404C173.414 14.1502 172.72 14.3164 171.706 14.5591L171.704 14.5596C168.969 15.2146 163.913 16.4254 163.014 16.6234C162.803 16.6763 161.644 16.9743 160.932 17.2822C160.71 17.3815 160.697 17.1498 160.886 17.0041C161.048 16.8783 162.14 16.2393 162.958 15.9447C163.127 15.8851 163.372 15.7196 163.541 15.5938L163.579 15.564C164.179 15.1024 164.919 14.5324 165.567 13.6769C166.381 12.6043 165.729 11.7932 165.262 11.7932C165.209 11.7932 165.159 11.8064 165.113 11.8263C164.865 11.9488 159.449 15.4613 159.449 15.4613C158.483 16.3022 157.758 17.0041 157.225 17.5636C156.781 18.0006 156.417 18.431 156.126 18.8216C156.013 18.9706 155.944 19.0699 155.91 19.1196C155.401 19.8446 155.169 20.3644 155.169 20.3644C155.086 20.5465 155 20.8477 155 20.8477C155 20.8477 153.044 21.9932 152.633 22.2084C152.147 22.4623 151.887 22.7733 151.706 22.9899C151.575 23.146 151.486 23.2532 151.382 23.2545C151.041 23.2612 151.534 22.0164 151.895 21.4767C152.028 21.2781 152.266 21.0695 152.541 20.8742C151.617 20.4703 150.753 20.328 150.002 20.328C148.247 20.328 147.085 21.0993 147.085 21.0993C147.085 21.0993 146.344 21.5132 145.096 22.4699C143.225 23.9067 142.875 26.3334 142.875 26.3334C142.58 27.9854 143.209 31.6503 146.37 33.5175C147.674 34.2889 148.846 34.5272 149.803 34.5272C151.075 34.5272 151.977 34.1042 152.324 33.9417C152.345 33.9317 152.365 33.9226 152.382 33.9148C152.845 33.7062 153.355 33.4579 154.566 32.6435C156.526 31.3325 156.93 28.6906 156.93 28.6906V28.6873L156.242 29.1375C156.242 29.1375 154.427 30.2896 153.454 30.1506C152.557 30.0215 151.461 28.6443 151.925 28.6542C151.967 28.6542 152.053 28.682 152.17 28.7201C152.593 28.8569 153.426 29.1262 154.096 28.7171C154.424 28.5151 155.666 27.7603 156.493 27.2571C156.261 26.2672 156.536 25.721 157.291 26.4857C157.814 27.0154 159.572 26.9823 159.952 26.9691C159.955 26.9688 159.957 26.9686 159.959 26.9684C159.961 26.9682 159.963 26.968 159.965 26.9679C159.976 26.967 159.986 26.9664 159.997 26.9658C160.012 26.9649 160.027 26.9641 160.042 26.9625C160.336 26.9393 160.628 26.8962 160.909 26.8234C162.986 26.387 165.411 25.22 166.726 24.5871C167.067 24.423 167.333 24.2948 167.5 24.2246C168.566 23.7776 172.3 21.6191 173.379 19.9241C173.468 19.785 173.386 19.6493 173.369 19.6228C173.299 19.5334 173.031 19.2354 172.584 19.1957C172.124 19.156 171.591 19.4076 171.042 19.9274C169.129 21.7317 167.089 22.2978 167.003 22.321C166.967 22.3309 166.934 22.3342 166.901 22.3342C166.729 22.3342 166.573 22.2183 166.527 22.0462C166.47 21.8409 166.593 21.629 166.798 21.5728L166.801 21.5719C166.891 21.5455 168.775 20.9971 170.506 19.3646C171.231 18.6826 171.949 18.3648 172.644 18.4243C173.28 18.4773 173.693 18.8316 173.892 19.0467C174.286 18.8018 175.253 18.2058 175.269 18.1959C175.289 18.1827 175.527 18.0006 175.272 17.6099C175.08 17.3318 174.865 17.1696 174.597 17.1067C174.038 16.9743 173.187 17.2756 172.065 18.0006C169.999 19.3315 166.957 20.0499 166.828 20.0797C166.798 20.0863 166.768 20.0896 166.738 20.0896C166.563 20.0896 166.404 19.9671 166.361 19.7883C166.311 19.5798 166.441 19.3712 166.649 19.3215C166.679 19.3149 169.691 18.6031 171.644 17.3451C172.985 16.4777 173.981 16.1599 174.773 16.3453C175.279 16.4645 175.693 16.7889 176.007 17.3153C176.011 17.3203 176.013 17.326 176.016 17.3318C176.017 17.3346 176.018 17.3374 176.019 17.3401C176.021 17.343 176.022 17.3458 176.024 17.3484Z" fill="#D4E3ED"/>
<path d="M209 47.3992H69.2064L67.9121 50.9184H207.702L209 47.3992Z" fill="#D4E3ED"/>
</svg>
